<svg width="13" height="15" viewBox="0 0 13 15" fill="none" xmlns="http://www.w3.org/2000/svg">
<g clip-path="url(#clip0_1_341)">
<path d="M7.91406 8.91406C7.91406 8.91406 8.01172 8.81641 8.20703 8.62109C8.40234 8.42578 8.5 8.05208 8.5 7.5C8.5 6.94792 8.30469 6.47656 7.91406 6.08594C7.52344 5.69531 7.05208 5.5 6.5 5.5C5.94792 5.5 5.47656 5.69531 5.08594 6.08594C4.69531 6.47656 4.5 6.94792 4.5 7.5C4.5 8.05208 4.69531 8.52344 5.08594 8.91406C5.47656 9.30469 5.94792 9.5 6.5 9.5C7.05208 9.5 7.52344 9.30469 7.91406 8.91406ZM8.67969 5.32031C8.67969 5.32031 8.82943 5.47005 9.12891 5.76953C9.42839 6.06901 9.57812 6.64583 9.57812 7.5C9.57812 8.35417 9.27865 9.08073 8.67969 9.67969C8.08073 10.2786 7.35417 10.5781 6.5 10.5781C5.64583 10.5781 4.91927 10.2786 4.32031 9.67969C3.72135 9.08073 3.42188 8.35417 3.42188 7.5C3.42188 6.64583 3.72135 5.91927 4.32031 5.32031C4.91927 4.72135 5.64583 4.42188 6.5 4.42188C7.35417 4.42188 8.08073 4.72135 8.67969 5.32031ZM10.2109 3.78906C10.2109 3.78906 10.2461 3.82422 10.3164 3.89453C10.3867 3.96484 10.4219 4.09896 10.4219 4.29688C10.4219 4.49479 10.3516 4.66406 10.2109 4.80469C10.0703 4.94531 9.90104 5.01562 9.70312 5.01562C9.50521 5.01562 9.33594 4.94531 9.19531 4.80469C9.05469 4.66406 8.98438 4.49479 8.98438 4.29688C8.98438 4.09896 9.05469 3.92969 9.19531 3.78906C9.33594 3.64844 9.50521 3.57812 9.70312 3.57812C9.90104 3.57812 10.0703 3.64844 10.2109 3.78906ZM7.09766 2.57422C7.09766 2.57422 7.00716 2.57487 6.82617 2.57617C6.64518 2.57747 6.53646 2.57812 6.5 2.57812C6.46354 2.57812 6.26432 2.57682 5.90234 2.57422C5.54036 2.57161 5.26562 2.57161 5.07812 2.57422C4.89062 2.57682 4.63932 2.58464 4.32422 2.59766C4.00911 2.61068 3.74089 2.63672 3.51953 2.67578C3.29818 2.71484 3.11198 2.76302 2.96094 2.82031C2.70052 2.92448 2.47135 3.07552 2.27344 3.27344C2.07552 3.47135 1.92448 3.70052 1.82031 3.96094C1.76302 4.11198 1.71484 4.29818 1.67578 4.51953C1.63672 4.74089 1.61068 5.00911 1.59766 5.32422C1.58464 5.63932 1.57682 5.89062 1.57422 6.07812C1.57161 6.26562 1.57161 6.54036 1.57422 6.90234C1.57682 7.26432 1.57812 7.46354 1.57812 7.5C1.57812 7.53646 1.57682 7.73568 1.57422 8.09766C1.57161 8.45964 1.57161 8.73438 1.57422 8.92188C1.57682 9.10938 1.58464 9.36068 1.59766 9.67578C1.61068 9.99089 1.63672 10.2591 1.67578 10.4805C1.71484 10.7018 1.76302 10.888 1.82031 11.0391C1.92448 11.2995 2.07552 11.5286 2.27344 11.7266C2.47135 11.9245 2.70052 12.0755 2.96094 12.1797C3.11198 12.237 3.29818 12.2852 3.51953 12.3242C3.74089 12.3633 4.00911 12.3893 4.32422 12.4023C4.63932 12.4154 4.89062 12.4232 5.07812 12.4258C5.26562 12.4284 5.54036 12.4284 5.90234 12.4258C6.26432 12.4232 6.46354 12.4219 6.5 12.4219C6.53646 12.4219 6.73568 12.4232 7.09766 12.4258C7.45964 12.4284 7.73438 12.4284 7.92188 12.4258C8.10938 12.4232 8.36068 12.4154 8.67578 12.4023C8.99089 12.3893 9.25911 12.3633 9.48047 12.3242C9.70182 12.2852 9.88802 12.237 10.0391 12.1797C10.2995 12.0755 10.5286 11.9245 10.7266 11.7266C10.9245 11.5286 11.0755 11.2995 11.1797 11.0391C11.237 10.888 11.2852 10.7018 11.3242 10.4805C11.3633 10.2591 11.3893 9.99089 11.4023 9.67578C11.4154 9.36068 11.4232 9.10938 11.4258 8.92188C11.4284 8.73438 11.4284 8.45964 11.4258 8.09766C11.4232 7.73568 11.4219 7.53646 11.4219 7.5C11.4219 7.46354 11.4232 7.26432 11.4258 6.90234C11.4284 6.54036 11.4284 6.26562 11.4258 6.07812C11.4232 5.89062 11.4154 5.63932 11.4023 5.32422C11.3893 5.00911 11.3633 4.74089 11.3242 4.51953C11.2852 4.29818 11.237 4.11198 11.1797 3.96094C11.0755 3.70052 10.9245 3.47135 10.7266 3.27344C10.5286 3.07552 10.2995 2.92448 10.0391 2.82031C9.88802 2.76302 9.70182 2.71484 9.48047 2.67578C9.25911 2.63672 8.99089 2.61068 8.67578 2.59766C8.36068 2.58464 8.10938 2.57682 7.92188 2.57422C7.73438 2.57161 7.45964 2.57161 7.09766 2.57422ZM12.4609 5.02344C12.487 5.48177 12.5 6.30729 12.5 7.5C12.5 8.69271 12.487 9.51823 12.4609 9.97656C12.4089 11.0599 12.0859 11.8984 11.4922 12.4922C10.8984 13.0859 10.0599 13.4089 8.97656 13.4609C8.51823 13.487 7.69271 13.5 6.5 13.5C5.30729 13.5 4.48177 13.487 4.02344 13.4609C2.9401 13.4089 2.10156 13.0859 1.50781 12.4922C0.914062 11.8984 0.591146 11.0599 0.539062 9.97656C0.513021 9.51823 0.5 8.69271 0.5 7.5C0.5 6.30729 0.513021 5.48177 0.539062 5.02344C0.591146 3.9401 0.914062 3.10156 1.50781 2.50781C2.10156 1.91406 2.9401 1.59115 4.02344 1.53906C4.48177 1.51302 5.30729 1.5 6.5 1.5C7.69271 1.5 8.51823 1.51302 8.97656 1.53906C10.0599 1.59115 10.8984 1.91406 11.4922 2.50781C12.0859 3.10156 12.4089 3.9401 12.4609 5.02344Z" fill="#555555"/>
</g>
<defs>
<clipPath id="clip0_1_341">
<rect width="12" height="14" fill="white" transform="matrix(1 0 0 -1 0.5 14.5)"/>
</clipPath>
</defs>
</svg>
