<svg width="13" height="15" viewBox="0 0 13 15" fill="none" xmlns="http://www.w3.org/2000/svg">
<path d="M12.3125 3.6875C11.9635 4.19792 11.5417 4.63281 11.0469 4.99219C11.0521 5.0651 11.0547 5.17448 11.0547 5.32031C11.0547 5.9974 10.9557 6.67318 10.7578 7.34766C10.5599 8.02214 10.2591 8.66927 9.85547 9.28906C9.45182 9.90885 8.97135 10.457 8.41406 10.9336C7.85677 11.4102 7.1849 11.7904 6.39844 12.0742C5.61198 12.3581 4.77083 12.5 3.875 12.5C2.46354 12.5 1.17188 12.1224 0 11.3672C0.182292 11.388 0.385417 11.3984 0.609375 11.3984C1.78125 11.3984 2.82552 11.0391 3.74219 10.3203C3.19531 10.3099 2.70573 10.1419 2.27344 9.81641C1.84115 9.49089 1.54427 9.07552 1.38281 8.57031C1.55469 8.59635 1.71354 8.60938 1.85938 8.60938C2.08333 8.60938 2.30469 8.58073 2.52344 8.52344C1.9401 8.40365 1.45703 8.11328 1.07422 7.65234C0.691406 7.19141 0.5 6.65625 0.5 6.04688V6.01562C0.854167 6.21354 1.23438 6.32031 1.64062 6.33594C1.29688 6.10677 1.02344 5.80729 0.820312 5.4375C0.617188 5.06771 0.515625 4.66667 0.515625 4.23438C0.515625 3.77604 0.630208 3.35156 0.859375 2.96094C1.48958 3.73698 2.25651 4.35807 3.16016 4.82422C4.0638 5.29036 5.03125 5.54948 6.0625 5.60156C6.02083 5.40365 6 5.21094 6 5.02344C6 4.32552 6.24609 3.73047 6.73828 3.23828C7.23047 2.74609 7.82552 2.5 8.52344 2.5C9.2526 2.5 9.86719 2.76562 10.3672 3.29688C10.9349 3.1875 11.4688 2.98438 11.9688 2.6875C11.776 3.28646 11.4062 3.75 10.8594 4.07812C11.3438 4.02604 11.8281 3.89583 12.3125 3.6875Z" fill="#555555"/>
</svg>
