<svg width="13" height="15" viewBox="0 0 13 15" fill="none" xmlns="http://www.w3.org/2000/svg">
<g clip-path="url(#clip0_1_346)">
<path d="M3.22656 5.38281V13.125H0.648438V5.38281H3.22656ZM3.39062 2.99219C3.39583 3.3724 3.26432 3.6901 2.99609 3.94531C2.72786 4.20052 2.375 4.32812 1.9375 4.32812H1.92188C1.49479 4.32812 1.15104 4.20052 0.890625 3.94531C0.630208 3.6901 0.5 3.3724 0.5 2.99219C0.5 2.60677 0.634115 2.28776 0.902344 2.03516C1.17057 1.78255 1.52083 1.65625 1.95312 1.65625C2.38542 1.65625 2.73177 1.78255 2.99219 2.03516C3.2526 2.28776 3.38542 2.60677 3.39062 2.99219ZM12.5 8.6875V13.125H9.92969V8.98438C9.92969 8.4375 9.82422 8.00911 9.61328 7.69922C9.40234 7.38932 9.07292 7.23438 8.625 7.23438C8.29688 7.23438 8.02214 7.32422 7.80078 7.50391C7.57943 7.68359 7.41406 7.90625 7.30469 8.17188C7.2474 8.32812 7.21875 8.53906 7.21875 8.80469V13.125H4.64844C4.65885 11.0469 4.66406 9.36198 4.66406 8.07031C4.66406 6.77865 4.66146 6.00781 4.65625 5.75781L4.64844 5.38281H7.21875V6.50781H7.20312C7.30729 6.34115 7.41406 6.19531 7.52344 6.07031C7.63281 5.94531 7.77995 5.8099 7.96484 5.66406C8.14974 5.51823 8.3763 5.40495 8.64453 5.32422C8.91276 5.24349 9.21094 5.20312 9.53906 5.20312C10.4297 5.20312 11.1458 5.4987 11.6875 6.08984C12.2292 6.68099 12.5 7.54688 12.5 8.6875Z" fill="#555555"/>
</g>
<defs>
<clipPath id="clip0_1_346">
<rect width="12" height="14" fill="white" transform="matrix(1 0 0 -1 0.5 14.5)"/>
</clipPath>
</defs>
</svg>
