<svg width="13" height="15" viewBox="0 0 13 15" fill="none" xmlns="http://www.w3.org/2000/svg">
<g clip-path="url(#clip0_1_351)">
<path d="M7.875 10.2188V11.8672C7.875 12.2161 7.77344 12.3906 7.57031 12.3906C7.45052 12.3906 7.33333 12.3333 7.21875 12.2188V9.86719C7.33333 9.7526 7.45052 9.69531 7.57031 9.69531C7.77344 9.69531 7.875 9.86979 7.875 10.2188ZM10.5156 10.2266V10.5859H9.8125V10.2266C9.8125 9.8724 9.92969 9.69531 10.1641 9.69531C10.3984 9.69531 10.5156 9.8724 10.5156 10.2266ZM2.96875 8.52344H3.80469V7.78906H1.36719V8.52344H2.1875V12.9688H2.96875V8.52344ZM5.21875 12.9688H5.91406V9.10938H5.21875V12.0625C5.0625 12.2812 4.91406 12.3906 4.77344 12.3906C4.67969 12.3906 4.625 12.3359 4.60938 12.2266C4.60417 12.2109 4.60156 12.1198 4.60156 11.9531V9.10938H3.90625V12.1641C3.90625 12.4193 3.92708 12.6094 3.96875 12.7344C4.03125 12.9271 4.18229 13.0234 4.42188 13.0234C4.67188 13.0234 4.9375 12.8646 5.21875 12.5469V12.9688ZM8.57031 11.8125V10.2734C8.57031 9.89323 8.54688 9.63542 8.5 9.5C8.41146 9.20833 8.22656 9.0625 7.94531 9.0625C7.6849 9.0625 7.44271 9.20312 7.21875 9.48438V7.78906H6.52344V12.9688H7.21875V12.5938C7.45312 12.8802 7.69531 13.0234 7.94531 13.0234C8.22656 13.0234 8.41146 12.8802 8.5 12.5938C8.54688 12.4531 8.57031 12.1927 8.57031 11.8125ZM11.2109 11.7344V11.6328H10.5C10.5 11.8984 10.4948 12.0573 10.4844 12.1094C10.4479 12.2969 10.3438 12.3906 10.1719 12.3906C9.93229 12.3906 9.8125 12.2109 9.8125 11.8516V11.1719H11.2109V10.3672C11.2109 9.95573 11.1406 9.65365 11 9.46094C10.7969 9.19531 10.5208 9.0625 10.1719 9.0625C9.81771 9.0625 9.53906 9.19531 9.33594 9.46094C9.1901 9.65365 9.11719 9.95573 9.11719 10.3672V11.7188C9.11719 12.1302 9.19271 12.4323 9.34375 12.625C9.54688 12.8906 9.82812 13.0234 10.1875 13.0234C10.5625 13.0234 10.8438 12.8854 11.0312 12.6094C11.125 12.4688 11.1797 12.3281 11.1953 12.1875C11.2057 12.1406 11.2109 11.9896 11.2109 11.7344ZM6.46094 4.60156V2.96094C6.46094 2.60156 6.34896 2.42188 6.125 2.42188C5.90104 2.42188 5.78906 2.60156 5.78906 2.96094V4.60156C5.78906 4.96615 5.90104 5.14844 6.125 5.14844C6.34896 5.14844 6.46094 4.96615 6.46094 4.60156ZM12.0781 10.4688C12.0781 11.6875 12.0104 12.599 11.875 13.2031C11.8021 13.5104 11.651 13.7682 11.4219 13.9766C11.1927 14.1849 10.9271 14.3047 10.625 14.3359C9.66667 14.4453 8.22135 14.5 6.28906 14.5C4.35677 14.5 2.91146 14.4453 1.95312 14.3359C1.65104 14.3047 1.38411 14.1849 1.15234 13.9766C0.920573 13.7682 0.770833 13.5104 0.703125 13.2031C0.567708 12.6198 0.5 11.7083 0.5 10.4688C0.5 9.25 0.567708 8.33854 0.703125 7.73438C0.776042 7.42708 0.927083 7.16927 1.15625 6.96094C1.38542 6.7526 1.65365 6.63021 1.96094 6.59375C2.91406 6.48958 4.35677 6.4375 6.28906 6.4375C8.22135 6.4375 9.66667 6.48958 10.625 6.59375C10.9271 6.63021 11.194 6.7526 11.4258 6.96094C11.6576 7.16927 11.8073 7.42708 11.875 7.73438C12.0104 8.31771 12.0781 9.22917 12.0781 10.4688ZM4.28125 0.5H5.07812L4.13281 3.61719V5.73438H3.35156V3.61719C3.27865 3.23177 3.11979 2.67969 2.875 1.96094C2.68229 1.42448 2.51302 0.9375 2.36719 0.5H3.19531L3.75 2.55469L4.28125 0.5ZM7.17188 3.10156V4.46875C7.17188 4.89062 7.09896 5.19792 6.95312 5.39062C6.75521 5.65625 6.47917 5.78906 6.125 5.78906C5.77604 5.78906 5.5026 5.65625 5.30469 5.39062C5.15885 5.19271 5.08594 4.88542 5.08594 4.46875V3.10156C5.08594 2.6849 5.15885 2.38021 5.30469 2.1875C5.5026 1.92188 5.77604 1.78906 6.125 1.78906C6.47917 1.78906 6.75521 1.92188 6.95312 2.1875C7.09896 2.38021 7.17188 2.6849 7.17188 3.10156ZM9.78906 1.83594V5.73438H9.07812V5.30469C8.80208 5.6276 8.53385 5.78906 8.27344 5.78906C8.03385 5.78906 7.88021 5.69271 7.8125 5.5C7.77083 5.375 7.75 5.17969 7.75 4.91406V1.83594H8.46094V4.70312C8.46094 4.875 8.46354 4.96615 8.46875 4.97656C8.48438 5.09115 8.53906 5.14844 8.63281 5.14844C8.77344 5.14844 8.92188 5.03646 9.07812 4.8125V1.83594H9.78906Z" fill="#555555"/>
</g>
<defs>
<clipPath id="clip0_1_351">
<rect width="12" height="14" fill="white" transform="matrix(1 0 0 -1 0.5 14.5)"/>
</clipPath>
</defs>
</svg>
