<svg width="16" height="17" viewBox="0 0 16 17" fill="none" xmlns="http://www.w3.org/2000/svg">
<path d="M13.8279 9.24667C13.3761 9.36665 12.9107 9.42738 12.4433 9.42733C11.0199 9.42733 9.68326 8.874 8.67926 7.87C8.01995 7.2069 7.54597 6.38257 7.30453 5.47919C7.0631 4.57582 7.06266 3.62494 7.30326 2.72133C7.3333 2.60835 7.33311 2.48946 7.3027 2.37658C7.27229 2.2637 7.21273 2.1608 7.13 2.0782C7.04727 1.9956 6.94427 1.93621 6.83134 1.90599C6.71841 1.87577 6.59952 1.87577 6.48659 1.906C5.35536 2.20745 4.3233 2.80108 3.49392 3.62733C0.895255 6.226 0.895255 10.456 3.49392 13.056C4.11161 13.6771 4.84635 14.1696 5.65561 14.5049C6.46488 14.8402 7.33261 15.0116 8.20859 15.0093C9.08433 15.0118 9.95186 14.8405 10.7609 14.5053C11.57 14.1701 12.3045 13.6777 12.9219 13.0567C13.7488 12.2271 14.3427 11.1945 14.6439 10.0627C14.6738 9.94974 14.6736 9.83093 14.6432 9.71812C14.6128 9.60532 14.5533 9.50247 14.4707 9.41986C14.3881 9.33725 14.2853 9.27778 14.1725 9.24738C14.0597 9.21699 13.9409 9.21674 13.8279 9.24667ZM11.9799 12.114C11.4859 12.6107 10.8983 13.0046 10.251 13.2727C9.60381 13.5408 8.90982 13.6779 8.20926 13.676C7.50845 13.6777 6.81425 13.5405 6.16681 13.2723C5.51936 13.0041 4.93151 12.6102 4.43726 12.1133C2.35859 10.034 2.35859 6.65 4.43726 4.57067C4.83893 4.16945 5.30265 3.83561 5.81059 3.582C5.73624 4.54137 5.86989 5.50549 6.20241 6.40846C6.53492 7.31143 7.05846 8.13197 7.73726 8.814C8.41779 9.49492 9.23809 10.0199 10.1414 10.3527C11.0448 10.6854 12.0096 10.8181 12.9693 10.7413C12.7143 11.2484 12.3803 11.7117 11.9799 12.114Z" fill="#555555"/>
</svg>
