<svg xmlns="http://www.w3.org/2000/svg" width="197" height="197" viewBox="0 0 197 197">
  <g id="Group_5406" data-name="Group 5406" transform="translate(-1655 -1015)">
    <circle id="Ellipse_234" data-name="Ellipse 234" cx="1.5" cy="1.5" r="1.5" transform="translate(1849 1015)" fill="#004e96"/>
    <circle id="Ellipse_212" data-name="Ellipse 212" cx="1.5" cy="1.5" r="1.5" transform="translate(1784 1015)" fill="#004e96"/>
    <circle id="Ellipse_185" data-name="Ellipse 185" cx="1.5" cy="1.5" r="1.5" transform="translate(1720 1015)" fill="#004e96"/>
    <circle id="Ellipse_180" data-name="Ellipse 180" cx="1.5" cy="1.5" r="1.5" transform="translate(1655 1015)" fill="#004e96"/>
    <circle id="Ellipse_235" data-name="Ellipse 235" cx="1.5" cy="1.5" r="1.5" transform="translate(1849 1047)" fill="#004e96"/>
    <circle id="Ellipse_213" data-name="Ellipse 213" cx="1.5" cy="1.5" r="1.5" transform="translate(1784 1047)" fill="#004e96"/>
    <circle id="Ellipse_186" data-name="Ellipse 186" cx="1.5" cy="1.5" r="1.5" transform="translate(1720 1047)" fill="#004e96"/>
    <circle id="Ellipse_181" data-name="Ellipse 181" cx="1.5" cy="1.5" r="1.5" transform="translate(1655 1047)" fill="#004e96"/>
    <circle id="Ellipse_236" data-name="Ellipse 236" cx="1.5" cy="1.5" r="1.5" transform="translate(1849 1080)" fill="#004e96"/>
    <circle id="Ellipse_214" data-name="Ellipse 214" cx="1.5" cy="1.5" r="1.5" transform="translate(1784 1080)" fill="#004e96"/>
    <circle id="Ellipse_187" data-name="Ellipse 187" cx="1.5" cy="1.5" r="1.5" transform="translate(1720 1080)" fill="#004e96"/>
    <circle id="Ellipse_182" data-name="Ellipse 182" cx="1.5" cy="1.5" r="1.5" transform="translate(1655 1080)" fill="#004e96"/>
    <circle id="Ellipse_237" data-name="Ellipse 237" cx="1.5" cy="1.5" r="1.5" transform="translate(1849 1112)" fill="#004e96"/>
    <circle id="Ellipse_215" data-name="Ellipse 215" cx="1.5" cy="1.5" r="1.5" transform="translate(1784 1112)" fill="#004e96"/>
    <circle id="Ellipse_188" data-name="Ellipse 188" cx="1.5" cy="1.5" r="1.5" transform="translate(1720 1112)" fill="#004e96"/>
    <circle id="Ellipse_183" data-name="Ellipse 183" cx="1.5" cy="1.5" r="1.5" transform="translate(1655 1112)" fill="#004e96"/>
    <circle id="Ellipse_238" data-name="Ellipse 238" cx="1.5" cy="1.5" r="1.5" transform="translate(1849 1144)" fill="#004e96"/>
    <circle id="Ellipse_216" data-name="Ellipse 216" cx="1.5" cy="1.5" r="1.5" transform="translate(1784 1144)" fill="#004e96"/>
    <circle id="Ellipse_189" data-name="Ellipse 189" cx="1.5" cy="1.5" r="1.5" transform="translate(1720 1144)" fill="#004e96"/>
    <circle id="Ellipse_184" data-name="Ellipse 184" cx="1.5" cy="1.5" r="1.5" transform="translate(1655 1144)" fill="#004e96"/>
    <circle id="Ellipse_240" data-name="Ellipse 240" cx="1.5" cy="1.5" r="1.5" transform="translate(1849 1177)" fill="#004e96"/>
    <circle id="Ellipse_218" data-name="Ellipse 218" cx="1.5" cy="1.5" r="1.5" transform="translate(1784 1177)" fill="#004e96"/>
    <circle id="Ellipse_190" data-name="Ellipse 190" cx="1.5" cy="1.5" r="1.5" transform="translate(1720 1177)" fill="#004e96"/>
    <circle id="Ellipse_191" data-name="Ellipse 191" cx="1.5" cy="1.5" r="1.5" transform="translate(1655 1177)" fill="#004e96"/>
    <circle id="Ellipse_242" data-name="Ellipse 242" cx="1.5" cy="1.5" r="1.5" transform="translate(1849 1209)" fill="#004e96"/>
    <circle id="Ellipse_222" data-name="Ellipse 222" cx="1.5" cy="1.5" r="1.5" transform="translate(1784 1209)" fill="#004e96"/>
    <circle id="Ellipse_192" data-name="Ellipse 192" cx="1.5" cy="1.5" r="1.5" transform="translate(1720 1209)" fill="#004e96"/>
    <circle id="Ellipse_193" data-name="Ellipse 193" cx="1.5" cy="1.5" r="1.5" transform="translate(1655 1209)" fill="#004e96"/>
    <circle id="Ellipse_225" data-name="Ellipse 225" cx="1.5" cy="1.5" r="1.5" transform="translate(1817 1015)" fill="#004e96"/>
    <circle id="Ellipse_203" data-name="Ellipse 203" cx="1.5" cy="1.5" r="1.5" transform="translate(1752 1015)" fill="#004e96"/>
    <circle id="Ellipse_194" data-name="Ellipse 194" cx="1.5" cy="1.5" r="1.5" transform="translate(1687 1015)" fill="#004e96"/>
    <circle id="Ellipse_226" data-name="Ellipse 226" cx="1.5" cy="1.5" r="1.5" transform="translate(1817 1047)" fill="#004e96"/>
    <circle id="Ellipse_204" data-name="Ellipse 204" cx="1.5" cy="1.5" r="1.5" transform="translate(1752 1047)" fill="#004e96"/>
    <circle id="Ellipse_195" data-name="Ellipse 195" cx="1.5" cy="1.5" r="1.5" transform="translate(1687 1047)" fill="#004e96"/>
    <circle id="Ellipse_227" data-name="Ellipse 227" cx="1.5" cy="1.5" r="1.5" transform="translate(1817 1080)" fill="#004e96"/>
    <circle id="Ellipse_205" data-name="Ellipse 205" cx="1.5" cy="1.5" r="1.5" transform="translate(1752 1080)" fill="#004e96"/>
    <circle id="Ellipse_196" data-name="Ellipse 196" cx="1.5" cy="1.5" r="1.5" transform="translate(1687 1080)" fill="#004e96"/>
    <circle id="Ellipse_228" data-name="Ellipse 228" cx="1.5" cy="1.5" r="1.5" transform="translate(1817 1112)" fill="#004e96"/>
    <circle id="Ellipse_206" data-name="Ellipse 206" cx="1.5" cy="1.5" r="1.5" transform="translate(1752 1112)" fill="#004e96"/>
    <circle id="Ellipse_197" data-name="Ellipse 197" cx="1.5" cy="1.5" r="1.5" transform="translate(1687 1112)" fill="#004e96"/>
    <circle id="Ellipse_229" data-name="Ellipse 229" cx="1.5" cy="1.5" r="1.5" transform="translate(1817 1144)" fill="#004e96"/>
    <circle id="Ellipse_207" data-name="Ellipse 207" cx="1.5" cy="1.5" r="1.5" transform="translate(1752 1144)" fill="#004e96"/>
    <circle id="Ellipse_198" data-name="Ellipse 198" cx="1.5" cy="1.5" r="1.5" transform="translate(1687 1144)" fill="#004e96"/>
    <circle id="Ellipse_231" data-name="Ellipse 231" cx="1.5" cy="1.5" r="1.5" transform="translate(1817 1177)" fill="#004e96"/>
    <circle id="Ellipse_210" data-name="Ellipse 210" cx="1.5" cy="1.5" r="1.5" transform="translate(1752 1177)" fill="#004e96"/>
    <circle id="Ellipse_199" data-name="Ellipse 199" cx="1.5" cy="1.5" r="1.5" transform="translate(1687 1177)" fill="#004e96"/>
    <circle id="Ellipse_233" data-name="Ellipse 233" cx="1.5" cy="1.5" r="1.5" transform="translate(1817 1209)" fill="#004e96"/>
    <circle id="Ellipse_211" data-name="Ellipse 211" cx="1.5" cy="1.5" r="1.5" transform="translate(1752 1209)" fill="#004e96"/>
    <circle id="Ellipse_200" data-name="Ellipse 200" cx="1.5" cy="1.5" r="1.5" transform="translate(1687 1209)" fill="#004e96"/>
  </g>
</svg>