<svg width="19" height="21" viewBox="0 0 19 21" fill="none" xmlns="http://www.w3.org/2000/svg">
<g clip-path="url(#clip0_1_619)">
<path d="M18.0716 15.33V16.7586C18.0716 16.952 18.0009 17.1194 17.8595 17.2608C17.7181 17.4022 17.5507 17.4729 17.3573 17.4729H1.643C1.44954 17.4729 1.28213 17.4022 1.14076 17.2608C0.999395 17.1194 0.928711 16.952 0.928711 16.7586V15.33C0.928711 15.1365 0.999395 14.9691 1.14076 14.8278C1.28213 14.6864 1.44954 14.6157 1.643 14.6157H17.3573C17.5507 14.6157 17.7181 14.6864 17.8595 14.8278C18.0009 14.9691 18.0716 15.1365 18.0716 15.33ZM18.0716 9.61571V11.0443C18.0716 11.2377 18.0009 11.4051 17.8595 11.5465C17.7181 11.6879 17.5507 11.7586 17.3573 11.7586H1.643C1.44954 11.7586 1.28213 11.6879 1.14076 11.5465C0.999395 11.4051 0.928711 11.2377 0.928711 11.0443V9.61571C0.928711 9.42226 0.999395 9.25485 1.14076 9.11348C1.28213 8.97211 1.44954 8.90143 1.643 8.90143H17.3573C17.5507 8.90143 17.7181 8.97211 17.8595 9.11348C18.0009 9.25485 18.0716 9.42226 18.0716 9.61571ZM18.0716 3.90143V5.33C18.0716 5.52345 18.0009 5.69086 17.8595 5.83223C17.7181 5.9736 17.5507 6.04428 17.3573 6.04428H1.643C1.44954 6.04428 1.28213 5.9736 1.14076 5.83223C0.999395 5.69086 0.928711 5.52345 0.928711 5.33V3.90143C0.928711 3.70797 0.999395 3.54056 1.14076 3.39919C1.28213 3.25782 1.44954 3.18714 1.643 3.18714H17.3573C17.5507 3.18714 17.7181 3.25782 17.8595 3.39919C18.0009 3.54056 18.0716 3.70797 18.0716 3.90143Z" fill="#555555"/>
</g>
<defs>
<clipPath id="clip0_1_619">
<rect width="17.16" height="20" fill="white" transform="matrix(1 0 0 -1 0.919922 20.33)"/>
</clipPath>
</defs>
</svg>
