<svg width="16" height="17" viewBox="0 0 16 17" fill="none" xmlns="http://www.w3.org/2000/svg">
<path d="M13.8279 8.74667C13.3761 8.86665 12.9107 8.92738 12.4433 8.92733C11.0199 8.92733 9.68326 8.374 8.67926 7.37C8.01995 6.7069 7.54597 5.88257 7.30453 4.97919C7.0631 4.07582 7.06266 3.12494 7.30326 2.22133C7.3333 2.10835 7.33311 1.98946 7.3027 1.87658C7.27229 1.7637 7.21273 1.6608 7.13 1.5782C7.04727 1.4956 6.94427 1.43621 6.83134 1.40599C6.71841 1.37577 6.59952 1.37577 6.48659 1.406C5.35536 1.70745 4.3233 2.30108 3.49392 3.12733C0.895255 5.726 0.895255 9.956 3.49392 12.556C4.11161 13.1771 4.84635 13.6696 5.65561 14.0049C6.46488 14.3402 7.33261 14.5116 8.20859 14.5093C9.08433 14.5118 9.95186 14.3405 10.7609 14.0053C11.57 13.6701 12.3045 13.1777 12.9219 12.5567C13.7488 11.7271 14.3427 10.6945 14.6439 9.56267C14.6738 9.44974 14.6736 9.33093 14.6432 9.21812C14.6128 9.10532 14.5533 9.00247 14.4707 8.91986C14.3881 8.83725 14.2853 8.77778 14.1725 8.74738C14.0597 8.71699 13.9409 8.71674 13.8279 8.74667ZM11.9799 11.614C11.4859 12.1107 10.8983 12.5046 10.251 12.7727C9.60381 13.0408 8.90982 13.1779 8.20926 13.176C7.50845 13.1777 6.81425 13.0405 6.16681 12.7723C5.51936 12.5041 4.93151 12.1102 4.43726 11.6133C2.35859 9.534 2.35859 6.15 4.43726 4.07067C4.83893 3.66945 5.30265 3.33561 5.81059 3.082C5.73624 4.04137 5.86989 5.00549 6.20241 5.90846C6.53492 6.81143 7.05846 7.63197 7.73726 8.314C8.41779 8.99492 9.23809 9.51991 10.1414 9.85268C11.0448 10.1854 12.0096 10.3181 12.9693 10.2413C12.7143 10.7484 12.3803 11.2117 11.9799 11.614Z" fill="#555555"/>
</svg>
